<svg width="190" height="20" viewBox="0 0 190 20" fill="none" xmlns="http://www.w3.org/2000/svg">
<path d="M34.2274 20C38.5295 20 42.0171 16.5177 42.0171 12.2221C42.0171 7.92641 38.5295 4.44409 34.2274 4.44409C29.9253 4.44409 26.4377 7.92641 26.4377 12.2221C26.4377 16.5177 29.9253 20 34.2274 20Z" fill="#40BCF4"/>
<path d="M21.0087 20C25.3108 20 28.7983 16.5177 28.7983 12.2221C28.7983 7.92641 25.3108 4.44409 21.0087 4.44409C16.7066 4.44409 13.219 7.92641 13.219 12.2221C13.219 16.5177 16.7066 20 21.0087 20Z" fill="#00E054"/>
<path d="M7.78968 20C12.0918 20 15.5794 16.5177 15.5794 12.2221C15.5794 7.92641 12.0918 4.44409 7.78968 4.44409C3.48756 4.44409 0 7.92641 0 12.2221C0 16.5177 3.48756 20 7.78968 20Z" fill="#FF8000"/>
<path fill-rule="evenodd" clip-rule="evenodd" d="M14.3992 16.3402C13.6513 15.1459 13.219 13.7344 13.219 12.222C13.219 10.7096 13.6513 9.29803 14.3992 8.10376C15.1472 9.29803 15.5795 10.7096 15.5795 12.222C15.5795 13.7344 15.1472 15.1459 14.3992 16.3402Z" fill="#FAFAFA"/>
<path fill-rule="evenodd" clip-rule="evenodd" d="M27.618 8.10376C28.366 9.29803 28.7983 10.7096 28.7983 12.222C28.7983 13.7344 28.366 15.1459 27.618 16.3402C26.87 15.1459 26.4377 13.7344 26.4377 12.222C26.4377 10.7096 26.87 9.29803 27.618 8.10376Z" fill="#FAFAFA"/>
<path fill-rule="evenodd" clip-rule="evenodd" d="M90.7621 4.81094C91.314 4.81094 91.6903 4.76037 92.1918 4.65894C93.12 4.53251 93.4709 4.12735 93.6215 2.88659C93.6966 2.27885 93.7467 1.74697 93.7721 1.13924H97.5343V4.81094H100.996V8.8878H97.5343V12.4072C97.5343 14.9393 97.9106 15.218 100.068 15.218H100.996V19.4972H98.6879C94.2986 19.4972 93.2202 17.9021 93.2202 13.319V8.8878H92.0004H87.1611V12.4072C87.1611 14.9393 87.5371 15.218 89.6941 15.218H90.6223V19.4972H88.3145C83.9252 19.4972 82.847 17.9021 82.847 13.319V8.8878H80.3889V5.06409C80.9405 5.06409 81.3168 5.01352 81.8183 4.91209C82.7465 4.78566 83.0978 4.3805 83.248 3.13974C83.3235 2.532 83.3736 1.74697 83.3983 1.13924H87.1611V4.81094H90.7621ZM51.4211 1.34182H56.1366V14.9649H63.6862V19.4972H51.4211V1.34182ZM72.3632 19.877C67.3218 19.877 64.9642 17.0412 64.9642 12.5086V12.0782C64.9642 7.36858 67.8988 4.50719 72.4384 4.50719C77.5805 4.50719 79.7625 7.87488 79.7625 11.8503V13.4962H69.5041C69.7295 15.2686 70.7331 16.2309 72.4887 16.2309C73.7679 16.2309 74.4703 15.6737 74.8213 14.8384H79.6623C78.8596 17.9274 76.6022 19.877 72.3632 19.877ZM69.5041 10.6095H75.2479C75.047 8.96363 74.1945 8.00131 72.4887 8.00131C70.7832 8.00131 69.805 8.88777 69.5041 10.6095ZM109.498 19.877C104.456 19.877 102.098 17.0412 102.098 12.5086V12.0782C102.098 7.36858 105.033 4.50719 109.573 4.50719C114.715 4.50719 116.897 7.87488 116.897 11.8503V13.4962H106.638C106.864 15.2686 107.867 16.2309 109.623 16.2309C110.902 16.2309 111.605 15.6737 111.956 14.8384H116.796C115.994 17.9274 113.736 19.877 109.498 19.877ZM106.638 10.6095H112.382C112.181 8.96363 111.329 8.00131 109.623 8.00131C107.917 8.00131 106.939 8.88777 106.638 10.6095ZM118.777 19.4972V4.81094H122.439L123.066 7.82405C123.543 5.5454 125.022 4.60836 127.631 4.60836H128.459V9.44468H126.754C124.094 9.44468 123.442 10.3817 123.442 12.9897V19.4972H118.777ZM134.428 17.0413L134.076 19.4973H130.088V0H134.603V7.16583C135.381 5.49462 136.835 4.50731 138.867 4.50731C142.127 4.5323 144.536 6.78595 144.536 11.749V12.2047C144.536 17.193 142.353 19.8768 138.767 19.8768C136.559 19.8768 135.13 18.7628 134.428 17.0413ZM139.996 12.1794V11.8248C139.996 9.49534 138.892 8.33073 137.312 8.33073C135.656 8.33073 134.528 9.62206 134.528 11.7743V12.1036C134.528 14.661 135.631 15.8511 137.287 15.8511C138.967 15.8511 139.996 14.7624 139.996 12.1794ZM145.939 12.5087V12.0527C145.939 7.06439 148.999 4.50731 153.287 4.50731C157.652 4.50731 160.612 7.14054 160.612 12.0527V12.5087C160.612 17.3956 157.702 19.8768 153.263 19.8768C148.547 19.8768 145.939 17.3956 145.939 12.5087ZM156.072 12.4579V12.0527C156.072 9.64734 155.069 8.40658 153.313 8.40658C151.607 8.40658 150.478 9.59677 150.478 12.0527V12.4579C150.478 14.7115 151.607 15.9017 153.287 15.9017C154.968 15.9017 156.072 14.7624 156.072 12.4579ZM167.884 15.3447L165.226 19.4972H159.858L165.226 11.8503L160.36 4.81091H165.527L167.91 8.53319L170.292 4.81091H175.434L170.593 11.7997L175.76 19.4972H170.543L167.884 15.3447ZM185.265 16.9399C184.538 18.6617 183.083 19.776 180.851 19.776C177.339 19.776 175.132 17.2184 175.132 12.1795V11.7487C175.132 6.81127 177.54 4.53233 180.876 4.53233C182.983 4.53233 184.362 5.41879 185.09 6.9127V2.90782e-05H189.579V19.4973H185.692L185.265 16.9399ZM185.14 12.1542V11.8249C185.14 9.5968 184.061 8.33076 182.431 8.33076C180.725 8.33076 179.722 9.52065 179.722 11.8249V12.1542C179.722 14.7877 180.801 15.8512 182.356 15.8512C184.036 15.8512 185.14 14.6357 185.14 12.1542Z" fill="#FAFAFA"/>
</svg>
