<svg width="24" height="20" viewBox="0 0 24 20" fill="none" xmlns="http://www.w3.org/2000/svg">
<g clip-path="url(#clip0_114_503)">
<path d="M21.4789 4.96366C21.4935 5.17366 21.4935 5.38366 21.4935 5.5956C21.4935 12.0533 16.5773 19.5011 7.58797 19.5011V19.4972C4.93249 19.5011 2.33216 18.7404 0.0966797 17.3062C0.482809 17.3527 0.870873 17.3759 1.25991 17.3769C3.46055 17.3788 5.59829 16.6404 7.32958 15.2808C5.23829 15.2411 3.40442 13.8775 2.76378 11.8869C3.49636 12.0282 4.2512 11.9991 4.97023 11.8027C2.69023 11.342 1.04991 9.33882 1.04991 7.01237C1.04991 6.99108 1.04991 6.97076 1.04991 6.95043C1.72926 7.32882 2.48991 7.53882 3.26797 7.56205C1.12055 6.12689 0.458615 3.27011 1.75539 1.03656C4.23668 4.08979 7.89765 5.94592 11.8276 6.14237C11.4338 4.44495 11.9718 2.66624 13.2415 1.47302C15.2099 -0.377307 18.3057 -0.282468 20.156 1.68495C21.2505 1.46914 22.2996 1.06753 23.2596 0.498499C22.8947 1.62979 22.1312 2.59076 21.1112 3.2014C22.0799 3.08721 23.0264 2.82785 23.9176 2.43205C23.2615 3.41527 22.4351 4.27173 21.4789 4.96366Z" fill="black"/>
</g>
<defs>
<clipPath id="clip0_114_503">
<rect width="24" height="19.7419" fill="white"/>
</clipPath>
</defs>
</svg>
